<?xml version="1.0" encoding="utf-8"?>
<!-- Generator: Adobe Illustrator 26.0.3, SVG Export Plug-In . SVG Version: 6.00 Build 0)  -->
<svg version="1.1" id="Warstwa_1" xmlns="http://www.w3.org/2000/svg" xmlns:xlink="http://www.w3.org/1999/xlink" x="0px" y="0px"
	 viewBox="0 0 841.9 595.3" style="enable-background:new 0 0 841.9 595.3;" xml:space="preserve">
<style type="text/css">
	.st0{fill:#FFFFFF;}
</style>
<g>
	<path class="st0" d="M578.9,327.5v-150c0-12.7-10.3-22.9-22.9-22.9h-52.5c-4-42.1-39.5-75-82.6-75s-78.6,33-82.6,75h-52.5
		c-12.7,0-22.9,10.3-22.9,22.9v150c0,37.5,30.5,68,68,68h180.1C548.4,395.5,578.9,365,578.9,327.5z M420.9,95.4
		c34.3,0,62.6,25.9,66.6,59.2H354.3C358.2,121.3,386.6,95.4,420.9,95.4z M510.9,379.6H330.9c-28.7,0-52.1-23.4-52.1-52.1v-150
		c0-3.9,3.2-7.1,7.1-7.1h52.1v37.8c0,4.4,3.5,7.9,7.9,7.9s7.9-3.5,7.9-7.9v-37.8H488v36c0,4.4,3.5,7.9,7.9,7.9
		c4.4,0,7.9-3.5,7.9-7.9v-36H556c3.9,0,7.1,3.2,7.1,7.1v150C563,356.2,539.7,379.6,510.9,379.6z"/>
	<path class="st0" d="M495.5,260.7L495.5,260.7c-4,0-7.5,3-7.9,6.9c-3.5,33.7-32.1,60.2-66.7,60.2s-63.3-26.4-66.7-60.2
		c-0.4-4-3.9-6.9-7.9-6.9l0,0c-4.7,0-8.4,4.1-7.9,8.8c4.4,41.6,39.7,74.1,82.5,74.1s78.1-32.5,82.5-74.1
		C504,264.8,500.3,260.7,495.5,260.7L495.5,260.7z"/>
	<path class="st0" d="M283.9,454.2c0-8,6.1-11.8,13.9-11.5c6.5,0.2,10.9,3.2,12.8,7.1c1.2,2.4,3.7,3.9,6.4,3.9h0.1
		c5.6,0,9.1-6.1,6.2-10.8c-4.7-7.5-13.6-11.7-24.8-11.7c-16.9,0-28.5,9.1-28.5,23.6c0,30.5,43.9,17.5,43.9,37.5
		c0,7-5.4,12.1-14.9,12.1c-7.4,0-11.9-3.4-13.8-8.1c-1-2.6-3.7-4.2-6.5-4.2l0,0c-5.5,0-9,5.9-6.3,10.7c4.6,8.2,14.6,13,26.6,13
		c18.4,0,28.6-11.9,28.6-24.3C327.7,461.3,283.9,472.9,283.9,454.2L283.9,454.2z"/>
	<path class="st0" d="M403.1,432.2c-3.8,0-6.8,3-6.8,6.8v28.7h-38.9V439c0-3.8-3-6.8-6.8-6.8s-6.8,3-6.8,6.8v69.2
		c0,3.8,3,6.8,6.8,6.8s6.8-3,6.8-6.8v-29.4h38.9v29.4c0,3.8,3,6.8,6.8,6.8s6.8-3,6.8-6.8V439C409.9,435.2,406.8,432.2,403.1,432.2z"
		/>
	<path class="st0" d="M465.5,431.1c-23.3,0-42.3,17.5-42.3,42.3c0,24.8,18.9,42.4,42.3,42.4c23.3,0,42.3-17.5,42.3-42.4
		C507.8,448.5,489.1,431.1,465.5,431.1z M465.5,504c-16.4,0-28.3-11.9-28.3-30.6s11.9-30.4,28.3-30.4s28.3,11.7,28.3,30.4
		S481.9,504,465.5,504z"/>
	<path class="st0" d="M549.7,432.2h-28.6v76c0,3.8,3,6.8,6.8,6.8c3.7,0,6.8-3,6.8-6.8v-26.8h15c21.5,0,29.3-12.7,29.3-24.5
		C579,443.4,569.3,432.2,549.7,432.2L549.7,432.2z M549.7,470.3h-15v-27h15c10.6,0,15.4,5,15.4,13.6S560.3,470.3,549.7,470.3z"/>
</g>
</svg>
